<svg xmlns="http://www.w3.org/2000/svg" xmlns:xlink="http://www.w3.org/1999/xlink" viewBox="0,0,256,256" width="240px" height="240px" fill-rule="nonzero"><g transform="translate(53.33333,53.33333) scale(0.58333,0.58333)"><g fill="#1976d2" fill-rule="nonzero" stroke="none" stroke-width="1" stroke-linecap="butt" stroke-linejoin="miter" stroke-miterlimit="10" stroke-dasharray="" stroke-dashoffset="0" font-family="none" font-weight="none" font-size="none" text-anchor="none" style="mix-blend-mode: normal"><path d="M128,308.70588c-99.8011,0 -180.70588,-80.90478 -180.70588,-180.70588v0c0,-99.8011 80.90478,-180.70588 180.70588,-180.70588v0c99.8011,0 180.70588,80.90478 180.70588,180.70588v0c0,99.8011 -80.90478,180.70588 -180.70588,180.70588z" id="shape"></path></g><g fill="none" fill-rule="nonzero" stroke="none" stroke-width="1" stroke-linecap="butt" stroke-linejoin="miter" stroke-miterlimit="10" stroke-dasharray="" stroke-dashoffset="0" font-family="none" font-weight="none" font-size="none" text-anchor="none" style="mix-blend-mode: normal"><g transform="translate(-26.66667,-26.66667) scale(5.33333,5.33333)"><rect x="6" y="6" width="36" height="36" fill="#1976d2"></rect><path d="M27.49,22h-13.263v3.264h4.757v14.736h3.769v-14.736h4.737z" fill="#ffffff"></path><path d="M39.194,26.084c0,0 -1.787,-1.192 -3.807,-1.192c-2.02,0 -2.747,0.96 -2.747,1.986c0,2.648 7.381,2.383 7.381,7.712c0,8.209 -11.254,4.568 -11.254,4.568v-3.938c0,0 2.152,1.622 4.733,1.622c2.581,0 2.483,-1.688 2.483,-1.92c0,-2.449 -7.315,-2.449 -7.315,-7.878c0,-7.381 10.658,-4.469 10.658,-4.469z" fill="#ffffff"></path></g></g></g></svg>